<svg xmlns="http://www.w3.org/2000/svg" viewBox="0 0 168.1 101.87"><defs><style>.cls-1{fill:#39af95;}.cls-2{fill:#8bc1ae;}</style></defs><g id="Layer_2" data-name="Layer 2"><g id="Layer_1-2" data-name="Layer 1"><path class="cls-1" d="M61.53,56.48c10-15.71,20-31.44,30.1-47.11a24,24,0,0,1,5-6c7.56-5.94,18.3-3.73,23.77,4.7Q136.1,32.32,151.8,56.63c4.46,6.89,8.81,13.86,13.46,20.63,4.83,7,3.41,16.68-3.51,21.35-7.8,5.27-17.45,4.08-22.66-3.58C131,83.09,123.26,70.86,115.37,58.76l-8.78-13.48c-.69,1.07-1.26,1.92-1.82,2.79C95.3,63,85.88,77.88,76.31,92.71a23.45,23.45,0,0,1-5.84,6.53c-7.42,5.21-18.26,2.38-23.06-5.71-.66-1.12-1.2-2.33-1.79-3.49a26.74,26.74,0,0,1,2.06-12.4c.16,0,.4,0,.46-.09q4-6.15,7.94-12.33c.14-.22,0-.63,0-1Q58.79,60.38,61.53,56.48ZM111.8,36.14a16.7,16.7,0,0,0,1,2.17q16.32,25.23,32.7,50.43a13.39,13.39,0,0,0,2,2.48c2.45,2.28,6.65,2.11,9.48-.3,2.63-2.23,3-5,1.07-8.12-.69-1.12-1.43-2.21-2.14-3.32L120.18,24.31c-1-1.56-2-3.18-3.1-4.67-1-1.31-2.16-2.49-3.25-3.73A17.7,17.7,0,0,0,112.69,13c-3.18-5.25-9.29-5.15-12.75.26Q86.35,34.51,72.87,55.83,64.42,69.12,56,82.41c-2.57,4-1.62,7.41,2.62,9.54,3.65,1.83,6.82.84,9.35-3.08,4.23-6.55,8.38-13.15,12.58-19.72q12.92-20.22,25.85-40.43c.57.68,1.18,1.32,1.7,2C109.33,32.53,110.55,34.34,111.8,36.14Z"/><path class="cls-2" d="M61.53,56.48,56,64.26c-1-1.31-2-2.57-2.87-3.93Q37.59,36.41,22,12.48c-2.5-3.81-6.64-4.62-10.25-2.23s-4,5.41-1.24,9.71Q25.77,43.39,41,66.82c2.31,3.57,4.49,7.21,6.73,10.82A26.74,26.74,0,0,0,45.62,90c-2.92-4.35-5.9-8.66-8.75-13.05C25.49,59.5,14.32,41.88,2.73,24.55-1.77,17.81-.8,7.87,6.31,3.22,14.28-2,23.79-.74,29,6.87c6.59,9.71,12.85,19.65,19.28,29.48C52.65,43.07,57.1,49.77,61.53,56.48Z"/><path class="cls-2" d="M120.18,24.31a17.4,17.4,0,0,0-1.92,2c-2.19,3.24-4.31,6.53-6.46,9.81-1.25-1.8-2.47-3.61-3.74-5.38-.52-.72-1.13-1.36-1.7-2,1.62-2.64,3.27-5.26,4.84-7.92.94-1.59,1.76-3.26,2.63-4.89,1.09,1.24,2.26,2.42,3.25,3.73C118.2,21.13,119.16,22.75,120.18,24.31Z"/></g></g></svg>